<?xml version="1.0" encoding="UTF-8" standalone="no"?>
<svg
   version="1.1"
   width="417"
   height="327"
   style="fill:none"
   id="svg8"
   sodipodi:docname="entity_light_bold.svg"
   inkscape:version="1.1.2 (0a00cf5339, 2022-02-04, custom)"
   xmlns:inkscape="http://www.inkscape.org/namespaces/inkscape"
   xmlns:sodipodi="http://sodipodi.sourceforge.net/DTD/sodipodi-0.dtd"
   xmlns="http://www.w3.org/2000/svg"
   xmlns:svg="http://www.w3.org/2000/svg">
  <defs
     id="defs12" />
  <sodipodi:namedview
     id="namedview10"
     pagecolor="#ffffff"
     bordercolor="#666666"
     borderopacity="1.0"
     inkscape:pageshadow="2"
     inkscape:pageopacity="0.0"
     inkscape:pagecheckerboard="0"
     showgrid="false"
     fit-margin-top="0"
     fit-margin-left="0"
     fit-margin-right="0"
     fit-margin-bottom="0"
     inkscape:zoom="1.0246377"
     inkscape:cx="238.13296"
     inkscape:cy="163.9604"
     inkscape:window-width="788"
     inkscape:window-height="860"
     inkscape:window-x="802"
     inkscape:window-y="30"
     inkscape:window-maximized="1"
     inkscape:current-layer="svg8" />
  <path
     d=""
     style="fill:none;stroke:#444444;stroke-width:15;stroke-linecap:round;stroke-linejoin:round"
     id="path2" />
  <path
     d=""
     style="fill:none;stroke:#777777;stroke-width:15;stroke-linecap:round;stroke-linejoin:round"
     id="path4" />
  <path
     d="m 268.5,133.5 v 0 l -60,-60 v 0 l -60,60 m 60,-60 v 0 -60 m -135,150 v 0 l 60,-60 m 210,60 v 0 l -60,-60 m 60,60 v 0 h 60 m -330,0 v 0 h -60 m 255,30 v 0 l -60,60 v 0 l -60,-60 m 60,60 v 0 60 m -135,-150 v 0 l 60,60 m 210,-60 v 0 l -60,60 m 60,-60 v 0 h 60 m -330,0 v 0 h -60"
     style="fill:none;stroke:#ffffff;stroke-width:27;stroke-linecap:square;stroke-linejoin:round"
     id="path6" />
</svg>
